<svg xmlns="http://www.w3.org/2000/svg" viewBox="0 0 640 480" width="640" height="480" role="img" aria-label="Офіс LEGIUS">
  <defs><linearGradient id="o" x1="0" y1="0" x2="0" y2="1"><stop offset="0" stop-color="#16161A"/><stop offset="1" stop-color="#0D0D0F"/></linearGradient></defs>
  <rect width="640" height="480" fill="url(#o)"/>
  <g fill="none" stroke="#E50914" stroke-width="1.2" opacity="0.5">
    <rect x="120" y="90" width="160" height="300"/><rect x="300" y="60" width="220" height="330"/>
    <rect x="320" y="80" width="26" height="34"/><rect x="360" y="80" width="26" height="34"/><rect x="400" y="80" width="26" height="34"/><rect x="440" y="80" width="26" height="34"/><rect x="480" y="80" width="26" height="34"/><rect x="320" y="130" width="26" height="34"/><rect x="360" y="130" width="26" height="34"/><rect x="400" y="130" width="26" height="34"/><rect x="440" y="130" width="26" height="34"/><rect x="480" y="130" width="26" height="34"/><rect x="320" y="180" width="26" height="34"/><rect x="360" y="180" width="26" height="34"/><rect x="400" y="180" width="26" height="34"/><rect x="440" y="180" width="26" height="34"/><rect x="480" y="180" width="26" height="34"/><rect x="320" y="230" width="26" height="34"/><rect x="360" y="230" width="26" height="34"/><rect x="400" y="230" width="26" height="34"/><rect x="440" y="230" width="26" height="34"/><rect x="480" y="230" width="26" height="34"/><rect x="320" y="280" width="26" height="34"/><rect x="360" y="280" width="26" height="34"/><rect x="400" y="280" width="26" height="34"/><rect x="440" y="280" width="26" height="34"/><rect x="480" y="280" width="26" height="34"/><rect x="320" y="330" width="26" height="34"/><rect x="360" y="330" width="26" height="34"/><rect x="400" y="330" width="26" height="34"/><rect x="440" y="330" width="26" height="34"/><rect x="480" y="330" width="26" height="34"/>
    <rect x="140" y="110" width="30" height="38"/><rect x="185" y="110" width="30" height="38"/><rect x="230" y="110" width="30" height="38"/><rect x="140" y="165" width="30" height="38"/><rect x="185" y="165" width="30" height="38"/><rect x="230" y="165" width="30" height="38"/><rect x="140" y="220" width="30" height="38"/><rect x="185" y="220" width="30" height="38"/><rect x="230" y="220" width="30" height="38"/><rect x="140" y="275" width="30" height="38"/><rect x="185" y="275" width="30" height="38"/><rect x="230" y="275" width="30" height="38"/><rect x="140" y="330" width="30" height="38"/><rect x="185" y="330" width="30" height="38"/><rect x="230" y="330" width="30" height="38"/>
  </g>
  <rect x="0" y="390" width="640" height="90" fill="#0A0A0C"/>
  <text x="320" y="445" font-family="Georgia, serif" font-size="30" fill="#E50914" text-anchor="middle" letter-spacing="3">LEGIUS</text>
</svg>